<?xml version="1.0" standalone="no"?>
<!DOCTYPE svg PUBLIC "-//W3C//DTD SVG 20010904//EN"
 "http://www.w3.org/TR/2001/REC-SVG-20010904/DTD/svg10.dtd">
<svg version="1.0" xmlns="http://www.w3.org/2000/svg"
 width="195.000000pt" height="195.000000pt" viewBox="0 0 195.000000 195.000000"
 preserveAspectRatio="xMidYMid meet">
<metadata>
Created by potrace 1.14, written by Peter Selinger 2001-2017
</metadata>
<g transform="translate(0.000000,195.000000) scale(0.100000,-0.100000)"
fill="#000000" stroke="none">
<path d="M420 1930 c-5 -10 -10 -46 -10 -79 0 -37 -4 -61 -11 -61 -6 0 -33 10
-60 22 -45 19 -52 19 -65 6 -25 -25 -29 -90 -7 -109 44 -39 163 -51 211 -22
19 12 23 12 28 -2 10 -26 96 -20 127 9 29 27 63 25 72 -4 5 -17 23 -18 239
-19 l234 0 20 24 c24 27 48 24 70 -7 11 -16 29 -18 138 -18 141 0 175 9 218
60 23 28 27 41 25 84 -5 98 -53 132 -191 135 -96 2 -108 -5 -108 -69 0 -37
-15 -32 -23 7 -11 49 -22 57 -87 60 -54 2 -64 0 -86 -22 -13 -13 -25 -22 -25
-20 -1 3 -2 9 -3 14 -3 22 -27 26 -177 27 -145 1 -161 -1 -170 -17 -5 -10 -7
-31 -4 -46 5 -25 4 -25 -7 4 -20 49 -33 57 -99 60 -49 2 -63 -1 -77 -18 -9
-11 -17 -23 -18 -27 0 -4 -5 -18 -11 -32 -6 -14 -13 -32 -16 -40 -3 -8 -6 11
-6 42 -1 64 -7 71 -68 74 -33 2 -45 -1 -53 -16z m1095 -120 c0 -8 -8 -16 -17
-18 -13 -2 -18 3 -18 18 0 15 5 20 18 18 9 -2 17 -10 17 -18z"/>
<path d="M290 1639 c-41 -3 -87 -11 -101 -17 -74 -30 -131 -119 -131 -205 1
-59 12 -82 169 -356 68 -118 123 -221 123 -229 0 -31 72 -163 123 -226 30 -35
110 -162 178 -281 68 -119 141 -234 161 -255 68 -69 172 -84 266 -38 31 15 54
37 79 77 20 31 44 68 55 83 10 15 18 30 18 33 0 4 16 34 36 68 20 34 61 104
91 156 30 51 79 122 108 157 59 69 90 125 125 222 12 35 43 100 70 145 126
214 178 306 200 351 27 56 28 123 4 182 -22 52 -85 109 -136 123 -47 13 -1293
22 -1438 10z m180 -226 c0 -4 -12 -22 -27 -41 -16 -20 -37 -53 -48 -74 l-21
-38 -39 67 c-22 38 -41 74 -43 80 -3 10 20 13 87 12 50 0 91 -3 91 -6z m1180
-3 c0 -5 -19 -40 -42 -78 l-42 -70 -34 57 c-18 31 -40 63 -48 72 -8 8 -14 18
-14 21 0 4 41 6 90 6 50 0 90 -4 90 -8z m-705 -1083 c1 -26 -2 -47 -6 -47 -5
0 -9 6 -10 13 -5 61 -4 87 5 84 5 -2 10 -24 11 -50z"/>
</g>
</svg>
