<?xml version="1.0" standalone="no"?>
<!DOCTYPE svg PUBLIC "-//W3C//DTD SVG 20010904//EN"
 "http://www.w3.org/TR/2001/REC-SVG-20010904/DTD/svg10.dtd">
<svg version="1.0" xmlns="http://www.w3.org/2000/svg"
 width="280.000000pt" height="280.000000pt" viewBox="0 0 280.000000 280.000000"
 preserveAspectRatio="xMidYMid meet">
<metadata>
Created by potrace 1.14, written by Peter Selinger 2001-2017
</metadata>
<g transform="translate(0.000000,280.000000) scale(0.100000,-0.100000)"
fill="#000000" stroke="none">
<path d="M849 2353 c-6 -6 -10 -27 -9 -45 6 -105 1 -112 -65 -78 -22 11 -44
20 -51 20 -19 0 -34 -25 -40 -67 -4 -30 -1 -42 13 -54 44 -38 154 -51 205 -25
23 12 29 12 39 0 12 -14 74 -19 103 -8 9 3 16 12 16 20 0 22 63 18 77 -5 11
-18 27 -19 241 -19 l229 -1 21 24 c24 27 48 24 71 -8 12 -17 25 -19 158 -15
l144 3 40 42 c35 38 39 48 39 94 0 99 -58 139 -202 139 -87 0 -98 -8 -95 -67
2 -33 0 -40 -10 -31 -8 6 -11 13 -9 16 3 2 -3 21 -14 42 -19 37 -20 38 -77 38
-63 0 -103 -18 -103 -46 -1 -10 -7 -4 -14 14 l-14 32 -161 0 c-151 0 -162 -1
-172 -20 -6 -11 -8 -32 -5 -46 5 -20 4 -23 -4 -12 -5 8 -10 23 -10 32 0 31
-44 50 -107 46 -58 -3 -58 -3 -79 -48 -12 -25 -20 -48 -18 -52 3 -4 0 -9 -6
-13 -6 -4 -10 12 -10 44 0 29 -5 53 -12 58 -20 13 -98 10 -109 -4z m1096 -123
c0 -8 -8 -16 -17 -18 -13 -2 -18 3 -18 18 0 15 5 20 18 18 9 -2 17 -10 17 -18z"/>
<path d="M683 2058 c-127 -22 -199 -110 -191 -233 4 -63 1 -57 128 -280 10
-16 31 -54 49 -83 17 -29 31 -54 31 -56 0 -2 15 -29 34 -60 18 -31 41 -80 51
-109 23 -71 75 -163 124 -219 37 -41 129 -192 214 -348 16 -30 50 -86 76 -125
50 -74 100 -109 175 -120 48 -7 131 17 167 48 27 22 100 132 132 197 10 19 27
52 40 72 12 20 46 79 75 130 30 51 75 117 102 146 53 59 99 140 126 222 15 45
93 188 217 400 61 102 77 144 77 195 0 96 -46 168 -131 205 -52 22 -52 22
-755 23 -386 1 -720 -1 -741 -5z m200 -247 c-9 -14 -31 -49 -48 -78 l-32 -52
-41 74 c-23 40 -42 75 -42 78 0 3 41 5 90 5 l90 -1 -17 -26z m1197 21 c0 -3
-19 -39 -41 -78 l-42 -73 -34 57 c-19 31 -41 64 -49 73 -8 8 -14 18 -14 20 0
2 41 5 90 6 50 0 90 -2 90 -5z m-705 -1092 c2 -40 0 -47 -10 -34 -6 9 -10 33
-9 53 2 45 3 46 11 38 3 -4 7 -29 8 -57z"/>
</g>
</svg>
