<?xml version="1.0" standalone="no"?>
<!DOCTYPE svg PUBLIC "-//W3C//DTD SVG 20010904//EN"
 "http://www.w3.org/TR/2001/REC-SVG-20010904/DTD/svg10.dtd">
<svg version="1.0" xmlns="http://www.w3.org/2000/svg"
 width="512.000000pt" height="512.000000pt" viewBox="0 0 512.000000 512.000000"
 preserveAspectRatio="xMidYMid meet">
<metadata>
Created by potrace 1.14, written by Peter Selinger 2001-2017
</metadata>
<g transform="translate(0.000000,512.000000) scale(0.100000,-0.100000)"
fill="#000000" stroke="none">
<path d="M1663 4333 c-13 -2 -24 -7 -24 -11 -1 -4 -2 -511 -4 -1127 -1 -616
-5 -1140 -9 -1165 -12 -81 -38 -180 -47 -180 -5 0 -9 -7 -9 -16 0 -45 -201
-75 -281 -42 -67 29 -115 105 -123 194 -2 17 -6 36 -9 41 -16 26 -28 584 -13
631 5 16 2 20 -19 20 -14 0 -25 -3 -25 -7 0 -9 -787 -8 -796 2 -11 11 -44 9
-44 -3 0 -5 -5 -10 -11 -10 -5 0 -7 5 -3 11 5 8 1 8 -13 0 -11 -6 -23 -8 -26
-5 -3 3 -3 -3 0 -15 3 -12 10 -21 16 -21 6 0 1 -7 -12 -17 -21 -14 -22 -17 -8
-28 17 -12 31 -65 18 -65 -5 0 -5 -18 -1 -39 4 -21 3 -46 -2 -55 -5 -9 -5 -16
-1 -16 10 0 9 -52 -1 -68 -3 -6 -3 -13 2 -16 7 -4 8 -50 2 -66 -1 -3 -1 -9 0
-15 6 -33 5 -125 -2 -125 -5 0 -7 -4 -4 -8 2 -4 7 -37 11 -72 7 -71 12 -106
24 -160 4 -19 6 -52 5 -72 -1 -22 2 -36 9 -35 6 1 13 -6 15 -17 2 -11 0 -16
-6 -12 -6 3 -14 2 -17 -4 -4 -6 -3 -10 2 -9 23 4 35 -2 29 -17 -3 -8 -2 -12 4
-9 6 3 10 -3 10 -14 0 -11 7 -27 16 -36 9 -8 13 -22 10 -30 -3 -8 -1 -17 5
-20 5 -4 7 -11 4 -16 -4 -5 -1 -9 4 -9 6 0 11 -9 11 -21 0 -11 4 -18 9 -14 16
9 24 -35 9 -52 -11 -15 -11 -16 4 -10 10 3 20 2 23 -4 4 -5 10 -7 14 -5 4 3 8
-1 8 -9 0 -8 -4 -15 -9 -15 -20 0 5 -20 25 -21 15 0 38 -21 72 -65 60 -78 140
-154 215 -203 30 -20 56 -39 58 -43 2 -5 12 -8 23 -8 10 0 19 -4 19 -10 0 -5
7 -10 15 -10 9 0 27 -7 40 -16 14 -9 25 -13 25 -10 0 4 13 0 29 -8 25 -14 54
-22 136 -41 21 -5 74 -14 150 -24 50 -7 332 -5 370 2 11 2 23 -1 27 -7 5 -7
12 -4 22 9 15 20 15 20 16 1 0 -19 0 -19 14 -1 12 16 16 17 30 6 11 -9 16 -10
16 -2 0 6 7 11 16 11 9 0 12 -5 8 -12 -4 -7 -3 -8 4 -4 7 4 12 14 12 22 0 8 9
14 20 14 11 0 20 5 20 11 0 5 5 7 10 4 6 -4 16 -2 23 3 22 17 65 23 70 9 3 -7
6 -5 6 5 1 20 117 82 137 74 8 -3 11 1 7 10 -3 7 0 14 7 14 8 0 11 -23 10 -73
-1 -39 -1 -80 -1 -90 1 -18 31 -18 789 -13 829 5 872 6 872 19 0 5 3 6 8 3 4
-2 30 0 57 5 28 5 61 11 75 13 45 6 124 29 153 43 16 8 38 16 50 17 12 1 39
10 59 19 21 10 40 17 43 17 2 0 17 12 31 25 15 14 30 23 33 19 3 -3 -3 -12
-13 -20 -19 -13 -19 -14 7 -14 24 0 27 3 23 26 -3 17 0 27 12 31 9 4 19 10 22
13 3 4 12 11 21 16 26 14 100 76 127 106 14 15 30 25 36 21 6 -3 8 -3 4 2 -4
4 19 37 51 74 88 101 186 258 226 363 10 27 22 45 28 41 6 -3 7 -1 3 6 -4 6 2
39 14 74 24 68 26 77 30 92 1 6 6 16 12 23 6 6 12 31 13 55 2 23 8 57 14 75
11 36 11 37 11 55 0 8 4 7 10 -3 8 -12 10 -11 10 8 0 12 -5 22 -12 22 -6 0 -3
9 7 20 18 20 18 21 0 14 -14 -6 -16 -4 -9 7 5 8 10 30 11 49 1 19 4 71 7 115
7 108 7 385 0 465 -3 36 -5 80 -5 99 0 19 -4 40 -10 47 -7 8 -6 14 2 19 8 5 8
10 0 14 -9 6 -14 27 -26 111 -2 14 -6 34 -9 45 -31 113 -43 165 -39 165 2 0
-3 7 -12 16 -9 9 -14 23 -11 30 3 8 1 14 -4 14 -6 0 -10 7 -10 16 0 8 4 12 10
9 6 -3 7 1 3 10 -4 13 -8 14 -14 4 -6 -10 -11 -6 -18 14 -26 68 -91 191 -129
245 -13 17 -21 32 -18 32 3 0 -6 11 -20 25 -28 28 -27 51 1 48 11 -1 14 2 7 9
-7 7 -17 6 -30 -1 -16 -8 -21 -7 -26 5 -3 9 -4 20 -1 25 4 5 -2 6 -11 2 -14
-5 -16 -3 -11 11 4 9 3 15 -2 12 -5 -4 -40 24 -78 60 -37 37 -89 80 -116 96
-26 17 -44 34 -40 40 3 6 1 8 -4 5 -6 -4 -50 13 -98 37 -51 26 -81 46 -73 50
7 3 3 3 -9 0 -12 -3 -32 0 -45 7 -48 25 -58 29 -77 29 -11 0 -22 4 -25 9 -4 5
-24 12 -46 16 -22 4 -38 10 -35 15 3 4 -2 13 -10 20 -13 11 -14 10 -9 -5 6
-15 2 -17 -32 -12 -100 14 -124 20 -124 30 0 7 -4 7 -12 -1 -6 -6 -17 -8 -27
-3 -9 5 -451 8 -984 7 -532 0 -967 2 -967 7 0 4 -3 6 -7 6 -5 -1 -18 -4 -30
-6z m1807 -797 c68 -4 128 -10 132 -12 5 -3 20 -7 33 -10 48 -9 135 -55 173
-92 68 -65 127 -189 147 -307 2 -11 4 -20 5 -20 3 0 11 -56 24 -160 6 -55 11
-172 10 -260 -2 -262 -2 -255 -21 -249 -11 4 -14 3 -7 -3 15 -12 25 -43 17
-55 -3 -6 -8 -30 -10 -52 -5 -59 -8 -75 -16 -82 -4 -4 -7 -19 -7 -33 -1 -67
-73 -210 -142 -282 -39 -39 -108 -86 -138 -94 -3 -1 -12 -4 -20 -8 -77 -30
-126 -35 -418 -43 -114 -3 -218 -5 -232 -6 -14 0 -32 0 -40 1 -13 1 -15 104
-13 868 1 478 2 877 3 888 0 19 6 20 197 19 109 -1 254 -5 323 -8z"/>
<path d="M3705 3440 c-3 -5 -1 -10 4 -10 6 0 11 5 11 10 0 6 -2 10 -4 10 -3 0
-8 -4 -11 -10z"/>
<path d="M3810 4314 c0 -8 5 -12 10 -9 6 4 8 11 5 16 -9 14 -15 11 -15 -7z"/>
<path d="M4371 4063 c6 -7 15 -13 20 -13 5 0 6 6 3 13 -3 8 -11 14 -19 14 -11
0 -12 -4 -4 -14z"/>
<path d="M4832 3370 c0 -14 2 -19 5 -12 2 6 2 18 0 25 -3 6 -5 1 -5 -13z"/>
<path d="M1270 1871 c0 -5 7 -11 15 -15 9 -3 15 0 15 9 0 8 -7 15 -15 15 -8 0
-15 -4 -15 -9z"/>
<path d="M4775 1800 c3 -5 8 -10 11 -10 2 0 4 5 4 10 0 6 -5 10 -11 10 -5 0
-7 -4 -4 -10z"/>
<path d="M405 1399 c-10 -15 3 -25 16 -12 7 7 7 13 1 17 -6 3 -14 1 -17 -5z"/>
<path d="M705 1099 c-10 -15 3 -25 16 -12 7 7 7 13 1 17 -6 3 -14 1 -17 -5z"/>
<path d="M1830 1039 c0 -5 5 -7 10 -4 6 3 10 8 10 11 0 2 -4 4 -10 4 -5 0 -10
-5 -10 -11z"/>
<path d="M1804 988 c-3 -4 18 -8 47 -8 29 0 49 3 46 7 -10 10 -87 11 -93 1z"/>
<path d="M5068 743 c7 -3 16 -2 19 1 4 3 -2 6 -13 5 -11 0 -14 -3 -6 -6z"/>
<path d="M0 547 c0 -30 3 -34 25 -34 14 0 25 2 25 4 0 3 -11 18 -25 35 l-25
30 0 -35z"/>
</g>
</svg>
